<svg xmlns="http://www.w3.org/2000/svg" width="929.281" height="304.468" viewBox="0 0 929.281 304.468">
  <defs>
    <style>
      .cls-1 {
        fill: #fff;
        fill-rule: evenodd;
      }
    </style>
  </defs>
  <path id="Vampire" class="cls-1" d="M193.144,159.178A32.248,32.248,0,0,0,169.5,149.34q-15.882,0-25.545,10.356-7.25,7.6-7.25,14.844l1.036,3.107q14.838,0,23.819,4.833,13.8,7.6,13.809,27.271,0,20.373-16.57,59.376-13.812,32.1-19.677,38.663-4.491-5.178-13.809-29.343-3.8-10.008-17.95-46.948Q94.932,199.743,86.3,179.718T73.529,154.173H5.523v4.487q7.937,13.812,21.058,50.746,17.945,50.406,27.962,74.91,13.115,32.1,26.926,68.006,12.767,33.14,15.189,39.008,5.518,12.776,9.666,16.915,4.83-6.213,13.808-24.854,4.83-10.7,14.154-31.069l24.51-56.269q12.767-27.961,25.89-56.269,18.294-41.764,18.3-56.614A32.648,32.648,0,0,0,193.144,159.178Zm118.924,224.2q-2.767-5.874-2.762-7.6V258.355q0-11.391-17.26-26.246-15.195-13.124-20.713-13.124-13.463,6.942-26.581,13.178t-18.641,6.24a14.6,14.6,0,0,1-3.8-.69,44.5,44.5,0,0,0-8.631-1.726q-6.213,0-6.213,6.559,0,4.837,4.66,7.249a21.058,21.058,0,0,0,9.838,2.417,37.345,37.345,0,0,0,10.7-2.072q6.554-2.072,7.94-2.071,3.445,0,14.153,7.422t10.7,14.671q0,4.491-14.5,10.7-18.3,7.6-29,21.4-12.775,16.569-15.361,25.545T204.018,350.6q0,30.381,16.224,50.745,6.554,8.286,9.321,8.285,1.724,0,19.677-11.046a81.434,81.434,0,0,1,17.605-8.631q4.143,7.6,6.214,11.047,6.214,10.017,11.392,10.011,2.41,0,16.57-9.671t14.153-12.088a52.165,52.165,0,0,1-3.106-5.868h0ZM259.6,375.8q-5.526,0-12.255-15.707t-6.731-30.206q0-8.284,6.386-21.575t16.4-16.743l1.036,82.85A21.587,21.587,0,0,0,259.6,375.8h0ZM504,245.259q0-5.161-8.458-15.157t-12.6-10q-12.776,6.91-24.682,13.118t-15.017,6.214q-6.561-6.554-12.427-12.945t-8.975-6.387q-2.071,0-19.677,9.666t-22.094,9.666q-2.418,0-8.975-10.356T358.67,218.726q-5.873,0-15.879,8.269-17.267,14.127-17.26,18.954,0,2.412,2.416,5.513,4.83,6.553,4.833,10V408.245h48.674v-151.9q5.178-3.447,5.869-3.447a5.966,5.966,0,0,1,3.279,1.381q1.893,1.376,4.315,3.441V408.245h49.71v-151.9q0-2.411.863-3.268a12.656,12.656,0,0,1,1.9-1.554,19.289,19.289,0,0,1,6.9,3.447q2.41,2.071,2.417,6.543V408.245H504V245.259Zm132.62,5.572q-14.094-29.685-22.347-29.688-2.41,0-7.562,3.8a143.541,143.541,0,0,1-34.726,18.987,81.254,81.254,0,0,0-12.152-17.838q-7.3-8.139-9.375-8.139-1.74,0-18.059,11.4T516.08,243.166q3.447,6.214,6.732,12.088t3.279,8.98V364.4q-2.766,2.418-6.558,6.213a27.854,27.854,0,0,0-4.488,7.946q1.375,1.043,5.523,4.164,5.518,4.506,5.523,7.972v56.528q0,2.427,3.48,6.591,7.588-4.175,29.326-11.823,14.144-4.872,15.178-10.427,0.341-.355.173-4.87c-0.119-3.016-.173-5.1-0.173-6.257a75.639,75.639,0,0,1,1.376-15.3h4.121a16.65,16.65,0,0,0,6.877,1.38q6.182,0,12.713-4.832,4.806-4.143,9.968-8.631,23.027-16.909,32.994-35.729t9.968-46.775q0-27.267-15.469-59.721h0ZM605.835,359.916Q601,382.361,594.443,382.355q-1.037,0-6.559-3.452-8.634-5.519-12.773-7.6V264.294a5.125,5.125,0,0,1,.69-2.589q0.688-1.206,2.072-3.28h3.452A65.4,65.4,0,0,1,602.9,287.25q6.732,17.436,6.732,46.085,0,9.669-3.8,26.581h0Zm86.3-179.162a6.569,6.569,0,0,0-5.523-2.762q-4.491,0-13.809,8.285t-9.32,11.046q0,5.179,7.767,8.631a35.524,35.524,0,0,0,14.326,3.452,36.689,36.689,0,0,0,22.093-7.595q8.625-6.213,11.737-14.153-21.747,0-27.271-6.9h0ZM723.2,260.572q0-7.6-8.631-24.38t-13.808-16.775q-2.419,0-17.778,12.8T665.9,247.427a66.44,66.44,0,0,1,6.732,8.129,9.841,9.841,0,0,1,1.9,5.016V408.245H723.2V260.572Zm101.488-33.906a79.721,79.721,0,0,0-10.011-7.94q-0.7,0-10.529,9.839t-12.6,9.838q-6.562-6.554-12.773-13.118t-10.356-6.559q-5.178,0-17.778,9.666t-14.327,13.463a29.088,29.088,0,0,1,7.077,7.924q3.625,5.519,3.625,8.614V408.245H795V258.425a48.272,48.272,0,0,1,10.949,10.011q4.11,4.839,6.16,4.833,3.075,0,16.085-14.844,6.5-7.589,6.5-10.7,0-10.7-10.011-21.058h0Zm101.493,30.74q-7.249-10.7-8.63-12.088-6.213-8.285-12.082-16.575-7.25-9.669-8.285-9.671-5.178,0-24.855,20.723-17.606,18.65-22.093,25.556a130.381,130.381,0,0,0-13.464,27.282q-4.837,13.82-4.832,23.83,0,14.854,6.558,32.466a101.348,101.348,0,0,0,23.475,36.953,147.038,147.038,0,0,0,17.433,15.2q8.106,5.874,10.528,5.869t17.606-13.123q15.186-13.123,16.915-16.236-44.532-34.183-44.532-43.857,0-3.456,27.444-26.943t27.444-34.186q0-2.419-8.63-15.2h0Zm-39.353,47.968q-10.017,10.356-14.154,10.356-4.491,0-7.077-8.8a70.3,70.3,0,0,1-2.589-19.849q0-4.143,2.417-12.6t5.868-17.433h3.452q6.554,8.634,15.535,22.784,6.553,10.356,6.559,12.428Q896.84,295.022,886.829,305.374Z" transform="translate(-5.531 -149.344)"/>
</svg>
